PathFileType	4	(X/Y/Z)	C:/Users/opensim2020/Desktop/walking_exp_matlab/subject02_walking07_straight_03.trc	
DataRate	CameraRate	NumFrames	NumMarkers	Units	OrigDataRate	OrigDataStartFrame	OrigNumFrames	
100.00	100.00	4	50	mm	100.00	1993	203	
Frame#	Time	LFHD			RFHD			LBHD			RBHD			C7			T10			CLAV			STRN			RBAK			LSHO			LUPA			LELB			LFRM			LWRA			LWRB			LFIN			RSHO			RUPA			RELB			RFRM			RWRA			RWRB			RFIN			LASI			RASI			LPSI			RPSI			LTHI			LKNE			LTIB			LANK			LHEE			LTOE			RTHI			RKNE			RTIB			RANK			RHEE			RTOE			*39			*40			*41			*42			*43			*44			*45			*46			*47			*48			*49			
		X1	Y1	Z1	X2	Y2	Z2	X3	Y3	Z3	X4	Y4	Z4	X5	Y5	Z5	X6	Y6	Z6	X7	Y7	Z7	X8	Y8	Z8	X9	Y9	Z9	X10	Y10	Z10	X11	Y11	Z11	X12	Y12	Z12	X13	Y13	Z13	X14	Y14	Z14	X15	Y15	Z15	X16	Y16	Z16	X17	Y17	Z17	X18	Y18	Z18	X19	Y19	Z19	X20	Y20	Z20	X21	Y21	Z21	X22	Y22	Z22	X23	Y23	Z23	X24	Y24	Z24	X25	Y25	Z25	X26	Y26	Z26	X27	Y27	Z27	X28	Y28	Z28	X29	Y29	Z29	X30	Y30	Z30	X31	Y31	Z31	X32	Y32	Z32	X33	Y33	Z33	X34	Y34	Z34	X35	Y35	Z35	X36	Y36	Z36	X37	Y37	Z37	X38	Y38	Z38	X39	Y39	Z39	X40	Y40	Z40	X41	Y41	Z41	X42	Y42	Z42	X43	Y43	Z43	X44	Y44	Z44	X45	Y45	Z45	X46	Y46	Z46	X47	Y47	Z47	X48	Y48	Z48	X49	Y49	Z49	X50	Y50	Z50	

1	0.000	1388.27991	-790.73175	1756.26624	1531.23035	-786.79401	1737.09460	1379.60657	-902.28412	1655.46130	1520.83777	-910.24860	1632.17468	1456.21814	-940.68573	1526.59473	1474.57605	-1006.26788	1259.31323	1433.18665	-804.26453	1456.46021	1446.51672	-761.03790	1280.51575	1534.74683	-997.99017	1363.77856	1271.64819	-889.31403	1497.52026	1188.07361	-950.51477	1311.57996	1170.75073	-988.86859	1179.88818	1138.80957	-1023.68573	1056.99902	1131.35095	-1003.04517	919.15857	1118.53101	-1054.89001	938.82141	1098.57373	-1055.51428	874.71051	1632.84302	-841.00269	1498.34485	1734.13123	-829.23395	1316.02393	1765.24683	-774.90424	1180.82202	1783.81616	-706.62958	1081.60730	1760.41150	-623.34015	975.70563	1803.05396	-658.72821	961.76996	1800.29993	-602.25018	915.32520	1336.00879	-797.67242	988.64435	1591.35547	-790.90961	972.54102	1419.11304	-1001.86188	1038.30664	1534.31824	-1001.89001	1040.18018	1268.49512	-793.28333	688.12897	1298.61121	-755.30731	496.12769	1307.85535	-819.75470	315.32831	1336.67041	-823.54578	91.90018	1394.35254	-850.05200	65.17605	1304.53931	-679.06165	49.65776	1652.88538	-885.43854	670.98724	1610.40894	-900.99323	461.49438	1613.87317	-955.55023	279.60318	1573.17346	-985.00024	87.87148	1515.56274	-1018.32971	32.89806	1602.21082	-837.16565	32.78542	1479.08496	-903.59955	1798.03271	-3356.96533	2845.83691	1034.02332																											 
2	0.010	1388.17126	-783.64746	1755.71240	1531.07593	-779.39807	1736.90845	1379.97119	-895.17523	1654.79236	1521.25867	-902.69928	1631.72974	1456.73010	-933.12830	1526.06128	1474.92371	-998.77380	1258.81726	1433.62415	-796.71014	1455.94849	1447.44177	-753.14087	1280.16882	1535.53760	-990.72321	1363.57141	1272.21924	-882.04895	1496.76501	1189.19153	-944.58716	1311.29138	1172.30920	-983.98761	1179.77441	1140.81372	-1019.50665	1056.88611	1132.92407	-1000.54156	919.03424	1120.70325	-1052.26624	939.20929	1100.95105	-1053.49939	874.98279	1633.19141	-833.21637	1498.01038	1734.71155	-820.29230	1316.07397	1765.66663	-764.41327	1181.22729	1783.41418	-694.58179	1082.85083	1758.94971	-609.84607	978.37622	1801.82092	-644.81561	963.75018	1798.63232	-587.52484	918.38525	1336.17041	-789.71906	988.26410	1591.76196	-784.06995	971.65485	1419.16077	-994.22302	1037.60742	1534.28015	-994.59583	1039.57861	1268.78223	-784.83514	687.97186	1299.09485	-746.20410	495.31909	1306.21167	-801.24066	310.90265	1333.12634	-793.44281	87.23980	1390.34045	-819.16724	59.09114	1301.33533	-646.94147	51.79000	1652.77478	-880.56006	670.41241	1610.04199	-898.13983	460.80112	1613.70081	-954.10767	279.66876	1572.90137	-984.69171	87.97623	1515.34241	-1018.21277	32.99731	1602.42676	-837.20538	32.85364	1479.08203	-896.39435	1797.39087																														 
3	0.020	1387.94861	-776.67395	1755.08691	1530.88843	-771.99042	1736.52588	1380.21777	-887.94781	1653.89832	1521.53772	-895.18427	1631.18372	1457.11707	-925.48022	1525.41357	1475.05872	-991.24854	1258.22168	1434.07410	-788.97229	1455.36060	1447.91699	-745.60577	1279.39258	1535.84656	-982.77979	1362.79443	1272.61987	-874.63092	1495.85205	1190.39343	-938.23218	1310.60876	1173.87500	-978.65350	1179.36719	1142.73767	-1015.37909	1056.81055	1134.94458	-997.36621	918.82483	1122.94617	-1049.15540	939.32849	1103.42053	-1051.19983	875.03583	1633.46484	-825.55206	1497.76257	1735.21118	-811.51495	1316.07153	1766.03247	-754.07056	1181.60046	1782.93713	-682.77417	1084.25354	1757.48523	-596.75458	981.03253	1800.50439	-631.12408	965.58966	1796.74487	-573.09497	921.27411	1336.27197	-781.63611	987.67407	1592.16467	-776.99396	970.88300	1419.09106	-986.49158	1036.80603	1534.09412	-987.30310	1038.79785	1268.94360	-776.75610	687.41565	1299.30688	-737.28448	494.29263	1304.22754	-782.51477	306.59421	1329.45923	-763.57367	83.55683	1386.44946	-788.41418	54.17847	1298.57434	-615.02869	54.68456	1652.96790	-875.86713	669.90759	1610.01477	-894.90076	460.49225	1613.49634	-952.68036	279.72098	1572.60986	-984.43530	88.14237	1515.11414	-1018.13507	33.11704	1602.58972	-837.28094	32.73395	1478.96594	-889.14349	1796.79138																														 
4	0.030	1387.68250	-769.54474	1754.22693	1530.61572	-764.56293	1736.03516	1380.30188	-880.58746	1652.83569	1521.68909	-887.53888	1630.45837	1457.42822	-917.93384	1524.79932	1475.03699	-983.64630	1257.42334	1434.33435	-781.17755	1454.52344	1448.40698	-737.82324	1278.56445	1536.20374	-975.34271	1362.25671	1272.89368	-867.04877	1494.77930	1191.44177	-931.47321	1309.69543	1175.31165	-973.06641	1178.82617	1144.64624	-1010.80975	1056.47046	1137.02087	-994.05634	918.30127	1125.15430	-1045.96362	939.45557	1105.89453	-1048.66809	874.92126	1633.75830	-817.98700	1497.40222	1735.59277	-802.80432	1315.82056	1766.27954	-743.93494	1181.79358	1782.50757	-671.22052	1085.30859	1755.79089	-583.90875	983.36316	1799.11951	-617.66370	967.41528	1794.85388	-558.95612	924.12433	1336.43140	-773.35773	987.11359	1592.40979	-769.80145	970.11847	1418.86572	-978.63666	1035.80627	1533.75647	-980.01404	1037.87097	1268.89612	-768.12244	686.24200	1299.25818	-728.44489	493.12787	1301.81287	-764.05371	302.96277	1325.62927	-734.17926	81.04056	1382.23914	-758.18744	50.42042	1296.15295	-583.77478	58.29080	1652.75061	-870.89709	669.16406	1610.09094	-891.75861	460.12112	1613.27051	-951.13647	279.75436	1572.35608	-984.16241	88.30678	1514.83777	-1017.90643	33.05538	1602.80212	-837.24176	32.61688	1478.76160	-881.94196	1795.83179																														 
